<?xml version="1.0" standalone="no"?>
<!DOCTYPE svg PUBLIC "-//W3C//DTD SVG 20010904//EN"
 "http://www.w3.org/TR/2001/REC-SVG-20010904/DTD/svg10.dtd">
<svg version="1.0" xmlns="http://www.w3.org/2000/svg"
 width="1280.000000pt" height="640.000000pt" viewBox="0 0 1280.000000 640.000000"
 preserveAspectRatio="xMidYMid meet">
<metadata>
Created by potrace 1.15, written by Peter Selinger 2001-2017
</metadata>
<g transform="translate(0.000000,640.000000) scale(0.100000,-0.100000)"
fill="#ffffff" stroke="none">
<path d="M6633 5943 c-39 -5 -64 -35 -94 -111 -20 -50 -23 -81 -27 -244 l-4
-188 28 -47 c77 -133 194 -252 431 -435 23 -18 86 -69 140 -114 54 -44 112
-88 128 -96 17 -9 39 -26 50 -38 l20 -22 -25 -20 c-14 -10 -62 -45 -107 -76
-137 -96 -243 -206 -340 -353 -38 -58 -79 -118 -89 -135 -89 -131 -92 -136
-231 -379 -19 -33 -49 -74 -66 -92 -29 -29 -41 -33 -127 -43 -107 -12 -354
-33 -660 -55 -113 -8 -261 -20 -330 -26 -122 -11 -124 -11 -142 11 -10 12 -23
41 -29 63 -38 146 -88 260 -190 440 -24 43 -52 95 -63 115 -10 20 -53 80 -95
132 -42 52 -83 104 -91 115 -44 58 -295 304 -361 353 -303 228 -579 385 -722
412 -27 6 -75 21 -106 34 -139 60 -232 88 -407 121 -317 61 -364 65 -764 65
-336 0 -378 -2 -531 -25 -260 -38 -474 -92 -578 -144 -20 -10 -73 -38 -119
-61 -167 -85 -337 -278 -466 -530 -104 -205 -197 -485 -264 -800 -54 -253 -73
-353 -87 -450 -18 -123 -51 -297 -61 -325 -17 -44 -98 -125 -136 -135 -54 -15
-96 -54 -109 -103 -16 -56 -5 -531 15 -648 18 -108 35 -142 93 -182 26 -18 60
-44 77 -58 l30 -27 -42 -21 c-23 -11 -46 -30 -52 -40 -16 -30 -12 -113 6 -140
21 -29 105 -67 170 -76 27 -4 65 -14 84 -22 146 -60 799 -218 1030 -248 30 -4
72 -14 94 -21 173 -62 1273 -206 1741 -230 61 -3 167 -12 237 -21 150 -18 353
-13 443 11 33 9 191 81 350 161 212 106 306 148 350 155 33 6 92 18 132 26 43
8 131 14 219 14 81 0 176 5 211 12 111 20 619 -15 833 -57 215 -43 588 -183
667 -250 73 -61 482 -324 591 -379 43 -22 97 -33 300 -62 136 -19 375 -48 532
-64 157 -17 341 -37 410 -45 600 -73 1504 -103 2536 -86 727 13 1156 27 1257
41 80 12 242 62 309 96 57 29 72 53 63 103 -7 40 -1 48 79 104 31 21 34 60 9
97 -9 14 -48 58 -86 98 l-70 73 6 400 c5 298 4 406 -5 425 -9 19 -36 37 -95
64 -45 21 -93 42 -105 45 -13 4 -104 47 -203 95 -99 49 -195 91 -213 95 -36 7
-73 50 -90 105 -6 19 -21 94 -33 165 -55 340 -181 850 -260 1051 -22 56 -46
131 -53 168 -8 36 -24 81 -35 99 -12 17 -29 45 -38 61 -10 16 -32 49 -49 75
-17 25 -52 86 -79 135 -58 107 -134 203 -246 312 -108 104 -190 169 -253 201
-88 43 -216 116 -216 123 0 3 24 18 53 33 28 15 75 40 102 56 28 15 102 57
165 91 195 106 249 141 349 225 20 17 53 38 73 47 49 23 115 83 150 137 70
111 13 258 -168 431 -125 120 -164 129 -314 78 -55 -19 -80 -37 -161 -113
-243 -228 -551 -490 -674 -572 -57 -38 -193 -146 -238 -189 l-38 -37 -112 6
c-62 3 -175 16 -252 29 -134 22 -162 23 -635 22 -467 -1 -788 -13 -855 -33
-16 -5 -101 -21 -187 -36 -188 -33 -170 -39 -291 102 -45 53 -123 142 -172
197 -88 98 -283 324 -376 436 -25 30 -78 100 -118 155 -41 55 -94 121 -119
148 l-46 47 -66 -2 c-36 0 -80 -3 -97 -5z m-3903 -833 c406 -43 827 -178 1075
-343 141 -94 272 -223 371 -363 16 -23 41 -57 56 -75 15 -19 57 -88 94 -154
130 -231 136 -246 268 -590 40 -107 59 -172 52 -184 -9 -14 -57 -20 -341 -41
-148 -11 -286 -22 -305 -25 -19 -3 -84 -10 -145 -15 -275 -24 -452 -42 -600
-60 -88 -10 -198 -22 -245 -25 -47 -4 -173 -15 -280 -25 -107 -11 -346 -33
-530 -50 -184 -17 -418 -40 -520 -51 -542 -58 -651 -71 -720 -84 -41 -7 -130
-17 -197 -20 -157 -9 -148 -24 -139 234 10 291 62 645 107 733 11 21 35 91 54
156 54 184 79 249 143 374 68 132 110 190 218 299 160 163 441 271 829 318
141 17 558 12 755 -9z m6815 -389 c224 -29 265 -36 265 -50 0 -8 -434 -296
-530 -351 -41 -24 -86 -54 -100 -66 -14 -12 -70 -47 -125 -77 -55 -30 -118
-66 -139 -81 -21 -14 -43 -26 -49 -26 -5 0 -30 -15 -56 -34 -47 -34 -274 -146
-296 -146 -16 0 -214 186 -334 314 -53 57 -113 118 -135 137 -42 36 -236 259
-236 271 0 21 234 72 525 113 144 21 201 23 570 24 396 1 418 0 640 -28z
m1040 -283 c44 -22 100 -55 125 -73 25 -18 59 -39 76 -46 56 -25 239 -236 317
-365 42 -70 117 -229 137 -289 7 -22 28 -71 47 -110 18 -38 33 -77 33 -87 0
-10 18 -71 39 -135 22 -65 51 -172 66 -238 15 -66 28 -122 30 -125 16 -27 71
-532 60 -550 -4 -6 -17 -2 -32 9 -13 11 -50 30 -81 41 -31 12 -62 26 -68 31
-18 15 -133 69 -146 69 -6 0 -19 6 -27 14 -9 7 -59 32 -111 56 -52 23 -127 58
-165 76 -39 19 -74 34 -78 34 -4 0 -37 14 -72 30 -35 17 -70 30 -76 30 -7 0
-35 11 -63 24 -190 90 -332 152 -401 176 -44 15 -136 52 -205 83 -69 30 -136
57 -150 61 -14 4 -41 13 -60 21 -69 27 -217 83 -330 125 -63 23 -130 53 -148
66 -17 14 -62 39 -100 55 -157 70 -333 169 -362 203 -19 24 -2 37 85 71 39 15
88 38 110 50 22 13 51 26 65 30 34 11 457 233 495 260 17 12 46 28 65 35 61
23 293 141 350 178 30 19 106 59 168 88 109 52 150 77 219 135 29 25 36 27 70
18 21 -6 74 -29 118 -51z m-3094 -84 c38 -30 105 -88 148 -127 42 -40 138
-126 211 -192 278 -251 308 -285 248 -285 -11 0 -44 -13 -72 -29 -50 -28 -217
-80 -327 -101 -71 -14 -425 -69 -514 -80 -81 -10 -239 -13 -247 -4 -4 3 2 37
13 75 23 82 155 420 168 428 11 8 51 87 51 102 0 46 196 269 237 269 8 0 45
-25 84 -56z m1316 -1130 c56 -29 117 -64 137 -76 19 -13 69 -43 111 -68 42
-25 93 -56 113 -69 20 -14 60 -36 87 -49 28 -13 97 -54 155 -91 138 -89 262
-159 295 -167 14 -4 32 -15 38 -26 11 -18 109 -88 123 -88 10 0 125 -72 171
-107 24 -17 53 -35 65 -38 13 -4 48 -24 78 -45 31 -20 66 -40 78 -44 12 -4 29
-17 39 -30 21 -26 197 -141 233 -151 14 -4 36 -19 50 -34 24 -25 226 -170 329
-236 26 -16 62 -42 81 -57 19 -15 63 -47 98 -70 189 -129 312 -222 312 -235 0
-40 -132 -218 -208 -280 -96 -78 -163 -124 -225 -155 -128 -64 -557 -189 -797
-232 -355 -65 -1125 -75 -1490 -21 -372 55 -357 52 -482 110 -66 31 -167 68
-226 85 -59 16 -185 52 -281 79 -96 28 -181 51 -189 51 -16 0 -244 102 -359
161 -43 22 -91 53 -108 68 -16 16 -50 42 -75 59 -25 16 -67 53 -95 82 -27 28
-65 60 -83 72 -41 25 -211 280 -240 361 -14 38 -22 82 -22 125 0 90 38 282 62
308 10 11 23 34 28 50 5 16 25 74 45 129 42 114 68 199 94 301 33 131 76 167
221 183 52 6 131 13 175 16 44 4 112 15 150 25 39 10 104 21 146 24 42 4 91
11 110 17 19 5 81 14 139 19 58 6 128 15 155 20 28 5 151 22 275 36 124 14
272 32 330 39 58 7 139 11 180 8 67 -4 86 -11 177 -59z m-2637 -255 c0 -11
-13 -55 -29 -97 -33 -88 -63 -185 -86 -286 -39 -169 -117 -312 -201 -372 -80
-57 -204 -83 -300 -64 -138 27 -156 36 -195 92 -77 116 -101 211 -100 401 1
142 12 195 44 201 33 7 77 14 252 41 88 13 180 29 205 34 25 6 117 22 205 37
88 14 162 28 164 30 13 13 41 2 41 -17z m-1527 -199 c-6 -23 8 -26 57 -8 31
10 35 9 56 -15 66 -76 26 -454 -69 -659 -43 -94 -154 -221 -239 -275 -165
-104 -275 -161 -368 -191 -92 -31 -341 -88 -435 -102 -44 -6 -96 -15 -115 -20
-95 -25 -384 -52 -545 -51 -332 1 -455 22 -756 132 -127 46 -268 92 -624 201
-71 21 -179 50 -239 64 -132 29 -241 61 -281 82 l-30 15 25 8 c14 4 120 35
235 69 758 222 972 280 1190 320 55 10 167 30 249 45 94 16 188 41 250 64 56
21 126 44 156 51 30 7 107 29 170 47 63 19 208 56 321 83 113 27 250 60 305
74 187 47 440 82 606 85 82 1 86 0 81 -19z"/>
</g>
</svg>
